<?xml version="1.0" encoding="utf-8"?>
<!-- Generator: Adobe Illustrator 25.1.0, SVG Export Plug-In . SVG Version: 6.00 Build 0)  -->
<svg version="1.1" id="Calque_1" xmlns="http://www.w3.org/2000/svg" xmlns:xlink="http://www.w3.org/1999/xlink" x="0px" y="0px"
	 viewBox="0 0 1920 1080" style="enable-background:new 0 0 1920 1080;" xml:space="preserve">
<style type="text/css">
	.st0{fill:#009EE2;}
	.st1{fill:#FFFFFF;}
	.st2{fill:#009EE2;stroke:#1D1D1B;stroke-width:0.025;stroke-miterlimit:10;}
</style>
<g>
	<rect x="784.99" y="275.86" class="st0" width="350.02" height="528.29"/>
	<path class="st1" d="M843.83,791.96c0,0,94.3,1.99,231.9-1.43c4.55-27.33,31.88-37.08-13.01-146.39
		c-4.07-6.34-54.33-76.12-49.93-95.64c0,0,82.95-13.17,67.83-89.3c5.86-7.32,43.43-25.37,11.71-73.68
		c0-8.78,14.15-38.06-22.45-54.65c-3.42-13.17-27.33-50.26-71.24-17.08c-2.93-1.95-50.75-43.43-90.27,14.64
		c-4.88,3.42-58.55-7.81-87.83,39.04c0,0-17.08,16.59,9.27,60.02c0.49,10.73-12.69,58.07,11.22,70.75
		c4.88,5.86,11.71,6.34-4.39,51.72c0,0-3.66,10.73,16.83,11.95c9.76,1.95,3.66,13.91,3.66,13.91s-0.49,9.27,11.71,4.88
		c0.73,4.88-5.12,20.01,11.47,18.3c6.1,4.15,8.05,11.71,8.05,11.71s0.98,16.35,24.4,8.3c18.3-9.52,26.11-14.39,26.11-14.39
		s17.08-4.64,19.27,5.86c2.2,10.49,20.49,40.99-10,75.88C942.53,692.45,846.92,763.82,843.83,791.96z"/>
	<g>
		<g>
			<g>
				<circle class="st2" cx="1083.15" cy="712.76" r="0.71"/>
			</g>
			<g>
				<circle class="st2" cx="1081.48" cy="713.76" r="0.71"/>
			</g>
			<g>
				<circle class="st2" cx="1079.81" cy="714.77" r="0.71"/>
			</g>
			<g>
				<circle class="st2" cx="1078.15" cy="715.77" r="0.71"/>
			</g>
			<g>
				<circle class="st2" cx="1076.48" cy="716.78" r="0.71"/>
			</g>
			<g>
				<circle class="st2" cx="1074.81" cy="717.78" r="0.71"/>
			</g>
			<g>
				<circle class="st2" cx="1073.14" cy="718.79" r="0.71"/>
			</g>
			<g>
				<circle class="st2" cx="1071.48" cy="719.79" r="0.71"/>
			</g>
			<g>
				<circle class="st2" cx="1069.81" cy="720.8" r="0.71"/>
			</g>
			<g>
				<circle class="st2" cx="1068.14" cy="721.8" r="0.71"/>
			</g>
			<g>
				<circle class="st2" cx="1066.47" cy="722.81" r="0.71"/>
			</g>
			<g>
				<circle class="st2" cx="1064.81" cy="723.81" r="0.71"/>
			</g>
			<g>
				<circle class="st2" cx="1063.14" cy="724.82" r="0.71"/>
			</g>
			<g>
				<circle class="st2" cx="1061.47" cy="725.82" r="0.71"/>
			</g>
			<g>
				<circle class="st2" cx="1059.8" cy="726.83" r="0.71"/>
			</g>
			<g>
				<circle class="st2" cx="1058.13" cy="727.83" r="0.71"/>
			</g>
			<g>
				<circle class="st2" cx="1056.47" cy="728.84" r="0.71"/>
			</g>
			<g>
				<circle class="st2" cx="1054.8" cy="729.84" r="0.71"/>
			</g>
			<g>
				<circle class="st2" cx="1053.13" cy="730.85" r="0.71"/>
			</g>
			<g>
				<circle class="st2" cx="1051.46" cy="731.85" r="0.71"/>
			</g>
			<g>
				<circle class="st2" cx="1049.8" cy="732.86" r="0.71"/>
			</g>
			<g>
				<circle class="st2" cx="1048.07" cy="733.75" r="0.71"/>
			</g>
			<g>
				<circle class="st2" cx="1046.33" cy="734.63" r="0.71"/>
			</g>
			<g>
				<circle class="st2" cx="1044.59" cy="735.5" r="0.71"/>
			</g>
			<g>
				<circle class="st2" cx="1042.85" cy="736.37" r="0.71"/>
			</g>
			<g>
				<circle class="st2" cx="1041.1" cy="737.24" r="0.71"/>
			</g>
			<g>
				<circle class="st2" cx="1039.36" cy="738.11" r="0.71"/>
			</g>
			<g>
				<circle class="st2" cx="1037.62" cy="738.99" r="0.71"/>
			</g>
			<g>
				<circle class="st2" cx="1035.88" cy="739.86" r="0.71"/>
			</g>
			<g>
				<circle class="st2" cx="1034.14" cy="740.73" r="0.71"/>
			</g>
			<g>
				<circle class="st2" cx="1032.4" cy="741.6" r="0.71"/>
			</g>
			<g>
				<circle class="st2" cx="1030.66" cy="742.47" r="0.71"/>
			</g>
			<g>
				<circle class="st2" cx="1028.92" cy="743.35" r="0.71"/>
			</g>
			<g>
				<circle class="st2" cx="1027.18" cy="744.22" r="0.71"/>
			</g>
			<g>
				<circle class="st2" cx="1025.44" cy="745.09" r="0.71"/>
			</g>
			<g>
				<circle class="st2" cx="1023.7" cy="745.96" r="0.71"/>
			</g>
			<g>
				<circle class="st2" cx="1021.85" cy="746.57" r="0.71"/>
			</g>
			<g>
				<circle class="st2" cx="1019.99" cy="747.15" r="0.71"/>
			</g>
			<g>
				<circle class="st2" cx="1018.13" cy="747.73" r="0.71"/>
			</g>
			<g>
				<circle class="st2" cx="1016.27" cy="748.31" r="0.71"/>
			</g>
			<g>
				<circle class="st2" cx="1014.41" cy="748.89" r="0.71"/>
			</g>
			<g>
				<circle class="st2" cx="1012.55" cy="749.47" r="0.71"/>
			</g>
			<g>
				<circle class="st2" cx="1010.69" cy="750.05" r="0.71"/>
			</g>
			<g>
				<circle class="st2" cx="1008.84" cy="750.63" r="0.71"/>
			</g>
			<g>
				<circle class="st2" cx="1006.98" cy="751.2" r="0.71"/>
			</g>
			<g>
				<circle class="st2" cx="1005.12" cy="751.78" r="0.71"/>
			</g>
			<g>
				<circle class="st2" cx="1003.26" cy="752.36" r="0.71"/>
			</g>
			<g>
				<circle class="st2" cx="1001.33" cy="752.55" r="0.71"/>
			</g>
			<g>
				<circle class="st2" cx="999.39" cy="752.67" r="0.71"/>
			</g>
			<g>
				<circle class="st2" cx="997.44" cy="752.78" r="0.71"/>
			</g>
			<g>
				<circle class="st2" cx="995.5" cy="752.89" r="0.71"/>
			</g>
			<g>
				<circle class="st2" cx="993.55" cy="753" r="0.71"/>
			</g>
			<g>
				<circle class="st2" cx="991.61" cy="753.11" r="0.71"/>
			</g>
			<g>
				<circle class="st2" cx="989.67" cy="753.22" r="0.71"/>
			</g>
			<g>
				<circle class="st2" cx="987.72" cy="753.33" r="0.71"/>
			</g>
			<g>
				<circle class="st2" cx="985.78" cy="753.45" r="0.71"/>
			</g>
			<g>
				<circle class="st2" cx="983.84" cy="753.41" r="0.71"/>
			</g>
			<g>
				<circle class="st2" cx="981.92" cy="753.11" r="0.71"/>
			</g>
			<g>
				<circle class="st2" cx="979.99" cy="752.81" r="0.71"/>
			</g>
			<g>
				<circle class="st2" cx="978.07" cy="752.5" r="0.71"/>
			</g>
			<g>
				<circle class="st2" cx="976.15" cy="752.2" r="0.71"/>
			</g>
			<g>
				<circle class="st2" cx="974.22" cy="751.9" r="0.71"/>
			</g>
			<g>
				<circle class="st2" cx="972.3" cy="751.6" r="0.71"/>
			</g>
			<g>
				<circle class="st2" cx="970.38" cy="751.3" r="0.71"/>
			</g>
			<g>
				<circle class="st2" cx="968.45" cy="751" r="0.71"/>
			</g>
			<g>
				<circle class="st2" cx="966.53" cy="750.7" r="0.71"/>
			</g>
			<g>
				<circle class="st2" cx="964.65" cy="750.25" r="0.71"/>
			</g>
			<g>
				<circle class="st2" cx="962.92" cy="749.35" r="0.71"/>
			</g>
			<g>
				<circle class="st2" cx="961.19" cy="748.46" r="0.71"/>
			</g>
			<g>
				<circle class="st2" cx="959.47" cy="747.56" r="0.71"/>
			</g>
			<g>
				<circle class="st2" cx="957.74" cy="746.66" r="0.71"/>
			</g>
			<g>
				<circle class="st2" cx="956.1" cy="745.63" r="0.71"/>
			</g>
			<g>
				<circle class="st2" cx="954.56" cy="744.43" r="0.71"/>
			</g>
			<g>
				<circle class="st2" cx="953.03" cy="743.23" r="0.71"/>
			</g>
			<g>
				<circle class="st2" cx="951.5" cy="742.03" r="0.71"/>
			</g>
			<g>
				<circle class="st2" cx="949.96" cy="740.83" r="0.71"/>
			</g>
			<g>
				<circle class="st2" cx="948.43" cy="739.63" r="0.71"/>
			</g>
			<g>
				<circle class="st2" cx="946.9" cy="738.43" r="0.71"/>
			</g>
			<g>
				<circle class="st2" cx="945.36" cy="737.23" r="0.71"/>
			</g>
			<g>
				<circle class="st2" cx="943.99" cy="735.86" r="0.71"/>
			</g>
			<g>
				<circle class="st2" cx="942.73" cy="734.38" r="0.71"/>
			</g>
			<g>
				<circle class="st2" cx="941.46" cy="732.9" r="0.71"/>
			</g>
			<g>
				<circle class="st2" cx="940.19" cy="731.43" r="0.71"/>
			</g>
			<g>
				<circle class="st2" cx="938.92" cy="729.95" r="0.71"/>
			</g>
			<g>
				<circle class="st2" cx="937.66" cy="728.47" r="0.71"/>
			</g>
			<g>
				<circle class="st2" cx="936.39" cy="726.99" r="0.71"/>
			</g>
			<g>
				<circle class="st2" cx="935.12" cy="725.51" r="0.71"/>
			</g>
			<g>
				<circle class="st2" cx="934" cy="723.96" r="0.71"/>
			</g>
			<g>
				<circle class="st2" cx="933.42" cy="722.1" r="0.71"/>
			</g>
			<g>
				<circle class="st2" cx="932.84" cy="720.24" r="0.71"/>
			</g>
			<g>
				<circle class="st2" cx="932.26" cy="718.38" r="0.71"/>
			</g>
			<g>
				<circle class="st2" cx="931.68" cy="716.52" r="0.71"/>
			</g>
			<g>
				<circle class="st2" cx="931.1" cy="714.66" r="0.71"/>
			</g>
			<g>
				<circle class="st2" cx="930.52" cy="712.8" r="0.71"/>
			</g>
			<g>
				<circle class="st2" cx="929.94" cy="710.94" r="0.71"/>
			</g>
		</g>
	</g>
</g>
</svg>
