<?xml version="1.0" encoding="utf-8"?>
<!-- Generator: Adobe Illustrator 25.1.0, SVG Export Plug-In . SVG Version: 6.00 Build 0)  -->
<svg version="1.1" id="Calque_1" xmlns="http://www.w3.org/2000/svg" xmlns:xlink="http://www.w3.org/1999/xlink" x="0px" y="0px"
	 viewBox="0 0 1920 1080" style="enable-background:new 0 0 1920 1080;" xml:space="preserve">
<style type="text/css">
	.st0{fill:#F29100;}
	.st1{fill:#FFFFFF;}
</style>
<g>
	<rect x="784.99" y="275.86" class="st0" width="350.02" height="528.29"/>
	<path class="st1" d="M884.33,307.2c0,0,94.5-33.24,231.35,42.26c-6.14,14.84-43.57,84.53-37.43,158.1
		c5.52,5.81,42.34,38.07,42.34,46.78c-0.61,3.23,6.75,13.87-22.7,4.2c-2.76-0.97-23.63-11.61-23.63-11.61s3.07,18.71-1.84,20.33
		c-3.38,1.29-8.59,4.52-3.99,21.29c3.38,5.48,14.73,30.65,14.73,30.65s9.51,13.23-17.49,12.91c-1.53,3.23,0.77,14.36,0.77,14.36
		l-9.66,8.39l3.53,5.48c0,0-18.72,10-7.06,15.16c2.61,3.71-0.61,20.81-14.73,22.75c-14.11,1.94-37.28-2.58-37.28-2.58
		s26.08,3.87-4.76,20.65c0,0,6.9,5.97-7.06,16.78c3.99,2.26,28.69,14.36,24.55,35.01c1.84,7.58,7.21,25.49,7.21,25.49l-171.21-0.32
		c0,0-42.8-39.68-41.42-48.64c4.37-6.78,32.44-46.46,32.44-46.46s7.36-23.47,6.67-35.81c-0.69-12.34,3.37-16.21,3.37-16.21
		l-5.37-22.58l16.42,1.94c0,0-8.59-11.13-8.59-18.07c-0.31-5,1.69-31.46,1.69-31.46s-18.87-24.84-7.67-45.17
		c0-6.61,2.15-23.71,2.15-23.71l-35.82,1.13c0,0-23.01,0.73,1.84-16.21c3.45-2.9,25.08-15.97,47.86-18.88
		C864.7,467.8,898.45,389.48,884.33,307.2z"/>
	<path class="st0" d="M868.92,456.05c0,0,122.96,65.11,208.84,36.49l0.49,15.03c-85.88,28.63-214.7-34.43-214.7-34.43L868.92,456.05
		z"/>
</g>
</svg>
