<?xml version="1.0" encoding="utf-8"?>
<!-- Generator: Adobe Illustrator 25.1.0, SVG Export Plug-In . SVG Version: 6.00 Build 0)  -->
<svg version="1.1" id="Calque_1" xmlns="http://www.w3.org/2000/svg" xmlns:xlink="http://www.w3.org/1999/xlink" x="0px" y="0px"
	 viewBox="0 0 1920 1080" style="enable-background:new 0 0 1920 1080;" xml:space="preserve">
<style type="text/css">
	.st0{fill:#F29100;}
	.st1{fill:#FFFFFF;}
</style>
<g>
	<rect x="784.99" y="275.86" class="st0" width="350.02" height="528.29"/>
	<path class="st1" d="M843.83,791.96c0,0,94.3,1.99,231.9-1.43c4.55-27.33,31.88-37.08-13.01-146.39
		c-4.07-6.34-54.33-76.12-49.93-95.64c0,0,82.95-13.17,67.83-89.3c5.86-7.32,43.43-25.37,11.71-73.68
		c0-8.78,14.15-38.06-22.45-54.65c-3.42-13.17-27.33-50.26-71.24-17.08c-2.93-1.95-50.75-43.43-90.27,14.64
		c-4.88,3.42-58.55-7.81-87.83,39.04c0,0-17.08,16.59,9.27,60.02c0.49,10.73-12.69,58.07,11.22,70.75
		c4.88,5.86,11.71,6.34-4.39,51.72c0,0-3.66,10.73,16.83,11.95c9.76,1.95,3.66,13.91,3.66,13.91s-0.49,9.27,11.71,4.88
		c0.73,4.88-5.12,20.01,11.47,18.3c6.1,4.15,8.05,11.71,8.05,11.71s0.98,16.35,24.4,8.3c18.3-9.52,26.11-14.39,26.11-14.39
		s17.08-4.64,19.27,5.86c2.2,10.49,20.49,40.99-10,75.88C942.53,692.45,846.92,763.82,843.83,791.96z"/>
	<g>
		<g>
			<g>
				<circle class="st0" cx="1093.95" cy="389.41" r="0.71"/>
			</g>
			<g>
				<circle class="st0" cx="1092.4" cy="389.53" r="0.71"/>
			</g>
			<g>
				<circle class="st0" cx="1090.85" cy="389.64" r="0.71"/>
			</g>
			<g>
				<circle class="st0" cx="1089.29" cy="389.75" r="0.71"/>
			</g>
			<g>
				<circle class="st0" cx="1087.74" cy="389.87" r="0.71"/>
			</g>
			<g>
				<circle class="st0" cx="1086.18" cy="389.98" r="0.71"/>
			</g>
			<g>
				<circle class="st0" cx="1084.63" cy="390.1" r="0.71"/>
			</g>
			<g>
				<circle class="st0" cx="1083.07" cy="390.21" r="0.71"/>
			</g>
			<g>
				<circle class="st0" cx="1081.52" cy="390.32" r="0.71"/>
			</g>
			<g>
				<circle class="st0" cx="1079.96" cy="390.44" r="0.71"/>
			</g>
			<g>
				<circle class="st0" cx="1078.41" cy="390.55" r="0.71"/>
			</g>
			<g>
				<circle class="st0" cx="1076.85" cy="390.66" r="0.71"/>
			</g>
			<g>
				<circle class="st0" cx="1075.3" cy="390.78" r="0.71"/>
			</g>
			<g>
				<circle class="st0" cx="1073.74" cy="390.89" r="0.71"/>
			</g>
			<g>
				<circle class="st0" cx="1072.19" cy="391" r="0.71"/>
			</g>
			<g>
				<circle class="st0" cx="1070.63" cy="391.12" r="0.71"/>
			</g>
			<g>
				<circle class="st0" cx="1069.08" cy="391.23" r="0.71"/>
			</g>
			<g>
				<circle class="st0" cx="1067.52" cy="391.34" r="0.71"/>
			</g>
			<g>
				<circle class="st0" cx="1065.97" cy="391.46" r="0.71"/>
			</g>
			<g>
				<circle class="st0" cx="1064.41" cy="391.57" r="0.71"/>
			</g>
			<g>
				<circle class="st0" cx="1062.86" cy="391.68" r="0.71"/>
			</g>
			<g>
				<circle class="st0" cx="1061.3" cy="391.8" r="0.71"/>
			</g>
			<g>
				<circle class="st0" cx="1059.75" cy="391.91" r="0.71"/>
			</g>
			<g>
				<circle class="st0" cx="1058.19" cy="392.03" r="0.71"/>
			</g>
			<g>
				<circle class="st0" cx="1056.64" cy="392.14" r="0.71"/>
			</g>
			<g>
				<circle class="st0" cx="1055.08" cy="392.25" r="0.71"/>
			</g>
			<g>
				<circle class="st0" cx="1053.53" cy="392.37" r="0.71"/>
			</g>
			<g>
				<circle class="st0" cx="1051.97" cy="392.48" r="0.71"/>
			</g>
			<g>
				<circle class="st0" cx="1050.42" cy="392.59" r="0.71"/>
			</g>
			<g>
				<circle class="st0" cx="1048.86" cy="392.71" r="0.71"/>
			</g>
			<g>
				<circle class="st0" cx="1047.31" cy="392.82" r="0.71"/>
			</g>
			<g>
				<circle class="st0" cx="1045.75" cy="392.93" r="0.71"/>
			</g>
			<g>
				<circle class="st0" cx="1044.2" cy="393.05" r="0.71"/>
			</g>
			<g>
				<circle class="st0" cx="1042.64" cy="392.97" r="0.71"/>
			</g>
			<g>
				<circle class="st0" cx="1041.08" cy="392.89" r="0.71"/>
			</g>
			<g>
				<circle class="st0" cx="1039.53" cy="392.8" r="0.71"/>
			</g>
			<g>
				<circle class="st0" cx="1037.97" cy="392.71" r="0.71"/>
			</g>
			<g>
				<circle class="st0" cx="1036.42" cy="392.62" r="0.71"/>
			</g>
			<g>
				<circle class="st0" cx="1034.86" cy="392.53" r="0.71"/>
			</g>
			<g>
				<circle class="st0" cx="1033.3" cy="392.45" r="0.71"/>
			</g>
			<g>
				<circle class="st0" cx="1031.75" cy="392.36" r="0.71"/>
			</g>
			<g>
				<circle class="st0" cx="1030.19" cy="392.27" r="0.71"/>
			</g>
			<g>
				<circle class="st0" cx="1028.63" cy="392.18" r="0.71"/>
			</g>
			<g>
				<circle class="st0" cx="1027.08" cy="392.09" r="0.71"/>
			</g>
			<g>
				<circle class="st0" cx="1025.52" cy="392" r="0.71"/>
			</g>
			<g>
				<circle class="st0" cx="1023.96" cy="391.92" r="0.71"/>
			</g>
			<g>
				<circle class="st0" cx="1022.41" cy="391.83" r="0.71"/>
			</g>
			<g>
				<circle class="st0" cx="1020.85" cy="391.74" r="0.71"/>
			</g>
			<g>
				<circle class="st0" cx="1019.29" cy="391.65" r="0.71"/>
			</g>
			<g>
				<circle class="st0" cx="1017.74" cy="391.56" r="0.71"/>
			</g>
			<g>
				<circle class="st0" cx="1016.18" cy="391.47" r="0.71"/>
			</g>
			<g>
				<circle class="st0" cx="1014.62" cy="391.39" r="0.71"/>
			</g>
			<g>
				<circle class="st0" cx="1013.07" cy="391.3" r="0.71"/>
			</g>
			<g>
				<circle class="st0" cx="1011.51" cy="391.21" r="0.71"/>
			</g>
			<g>
				<circle class="st0" cx="1009.95" cy="391.12" r="0.71"/>
			</g>
			<g>
				<circle class="st0" cx="1008.4" cy="391.03" r="0.71"/>
			</g>
			<g>
				<circle class="st0" cx="1006.84" cy="390.95" r="0.71"/>
			</g>
			<g>
				<circle class="st0" cx="1005.28" cy="390.86" r="0.71"/>
			</g>
			<g>
				<circle class="st0" cx="1003.73" cy="390.77" r="0.71"/>
			</g>
			<g>
				<circle class="st0" cx="1002.2" cy="390.45" r="0.71"/>
			</g>
			<g>
				<circle class="st0" cx="1000.68" cy="390.12" r="0.71"/>
			</g>
			<g>
				<circle class="st0" cx="999.15" cy="389.79" r="0.71"/>
			</g>
			<g>
				<circle class="st0" cx="997.63" cy="389.46" r="0.71"/>
			</g>
			<g>
				<circle class="st0" cx="996.11" cy="389.14" r="0.71"/>
			</g>
			<g>
				<circle class="st0" cx="994.58" cy="388.81" r="0.71"/>
			</g>
			<g>
				<circle class="st0" cx="993.06" cy="388.48" r="0.71"/>
			</g>
			<g>
				<circle class="st0" cx="991.53" cy="388.15" r="0.71"/>
			</g>
			<g>
				<circle class="st0" cx="990.01" cy="387.82" r="0.71"/>
			</g>
			<g>
				<circle class="st0" cx="988.48" cy="387.5" r="0.71"/>
			</g>
			<g>
				<circle class="st0" cx="986.96" cy="387.17" r="0.71"/>
			</g>
			<g>
				<circle class="st0" cx="985.44" cy="386.84" r="0.71"/>
			</g>
			<g>
				<circle class="st0" cx="983.91" cy="386.51" r="0.71"/>
			</g>
			<g>
				<circle class="st0" cx="982.39" cy="386.18" r="0.71"/>
			</g>
			<g>
				<circle class="st0" cx="980.86" cy="385.85" r="0.71"/>
			</g>
			<g>
				<circle class="st0" cx="979.34" cy="385.53" r="0.71"/>
			</g>
			<g>
				<circle class="st0" cx="977.82" cy="385.2" r="0.71"/>
			</g>
			<g>
				<circle class="st0" cx="976.29" cy="384.87" r="0.71"/>
			</g>
			<g>
				<circle class="st0" cx="974.77" cy="384.54" r="0.71"/>
			</g>
			<g>
				<circle class="st0" cx="973.24" cy="384.21" r="0.71"/>
			</g>
			<g>
				<circle class="st0" cx="971.74" cy="383.81" r="0.71"/>
			</g>
			<g>
				<circle class="st0" cx="970.3" cy="383.21" r="0.71"/>
			</g>
			<g>
				<circle class="st0" cx="968.86" cy="382.61" r="0.71"/>
			</g>
			<g>
				<circle class="st0" cx="967.42" cy="382.02" r="0.71"/>
			</g>
			<g>
				<circle class="st0" cx="965.98" cy="381.42" r="0.71"/>
			</g>
			<g>
				<circle class="st0" cx="964.54" cy="380.83" r="0.71"/>
			</g>
			<g>
				<circle class="st0" cx="963.1" cy="380.23" r="0.71"/>
			</g>
			<g>
				<circle class="st0" cx="961.66" cy="379.64" r="0.71"/>
			</g>
			<g>
				<circle class="st0" cx="960.22" cy="379.04" r="0.71"/>
			</g>
			<g>
				<circle class="st0" cx="958.78" cy="378.44" r="0.71"/>
			</g>
			<g>
				<circle class="st0" cx="957.34" cy="377.85" r="0.71"/>
			</g>
			<g>
				<circle class="st0" cx="955.9" cy="377.25" r="0.71"/>
			</g>
			<g>
				<circle class="st0" cx="954.46" cy="376.66" r="0.71"/>
			</g>
			<g>
				<circle class="st0" cx="953.02" cy="376.06" r="0.71"/>
			</g>
			<g>
				<circle class="st0" cx="951.57" cy="375.46" r="0.71"/>
			</g>
			<g>
				<circle class="st0" cx="950.13" cy="374.87" r="0.71"/>
			</g>
			<g>
				<circle class="st0" cx="948.69" cy="374.27" r="0.71"/>
			</g>
			<g>
				<circle class="st0" cx="947.38" cy="373.44" r="0.71"/>
			</g>
			<g>
				<circle class="st0" cx="946.08" cy="372.58" r="0.71"/>
			</g>
			<g>
				<circle class="st0" cx="944.78" cy="371.71" r="0.71"/>
			</g>
			<g>
				<circle class="st0" cx="943.49" cy="370.85" r="0.71"/>
			</g>
			<g>
				<circle class="st0" cx="942.19" cy="369.98" r="0.71"/>
			</g>
			<g>
				<circle class="st0" cx="940.9" cy="369.11" r="0.71"/>
			</g>
			<g>
				<circle class="st0" cx="939.6" cy="368.25" r="0.71"/>
			</g>
			<g>
				<circle class="st0" cx="938.3" cy="367.38" r="0.71"/>
			</g>
			<g>
				<circle class="st0" cx="937.01" cy="366.51" r="0.71"/>
			</g>
			<g>
				<circle class="st0" cx="935.71" cy="365.65" r="0.71"/>
			</g>
			<g>
				<circle class="st0" cx="934.41" cy="364.78" r="0.71"/>
			</g>
			<g>
				<circle class="st0" cx="933.12" cy="363.91" r="0.71"/>
			</g>
			<g>
				<circle class="st0" cx="931.82" cy="363.05" r="0.71"/>
			</g>
			<g>
				<circle class="st0" cx="930.68" cy="361.99" r="0.71"/>
			</g>
			<g>
				<circle class="st0" cx="929.58" cy="360.89" r="0.71"/>
			</g>
			<g>
				<circle class="st0" cx="928.49" cy="359.78" r="0.71"/>
			</g>
			<g>
				<circle class="st0" cx="927.39" cy="358.67" r="0.71"/>
			</g>
			<g>
				<circle class="st0" cx="926.29" cy="357.57" r="0.71"/>
			</g>
			<g>
				<circle class="st0" cx="925.19" cy="356.46" r="0.71"/>
			</g>
			<g>
				<circle class="st0" cx="924.09" cy="355.35" r="0.71"/>
			</g>
			<g>
				<circle class="st0" cx="922.99" cy="354.25" r="0.71"/>
			</g>
			<g>
				<circle class="st0" cx="921.9" cy="353.14" r="0.71"/>
			</g>
			<g>
				<circle class="st0" cx="920.8" cy="352.03" r="0.71"/>
			</g>
			<g>
				<circle class="st0" cx="919.81" cy="350.84" r="0.71"/>
			</g>
			<g>
				<circle class="st0" cx="918.94" cy="349.54" r="0.71"/>
			</g>
			<g>
				<circle class="st0" cx="918.07" cy="348.25" r="0.71"/>
			</g>
			<g>
				<circle class="st0" cx="917.19" cy="346.96" r="0.71"/>
			</g>
			<g>
				<circle class="st0" cx="916.32" cy="345.67" r="0.71"/>
			</g>
			<g>
				<circle class="st0" cx="915.45" cy="344.38" r="0.71"/>
			</g>
			<g>
				<circle class="st0" cx="914.58" cy="343.08" r="0.71"/>
			</g>
			<g>
				<circle class="st0" cx="913.7" cy="341.79" r="0.71"/>
			</g>
			<g>
				<circle class="st0" cx="913" cy="340.4" r="0.71"/>
			</g>
			<g>
				<circle class="st0" cx="912.35" cy="338.98" r="0.71"/>
			</g>
			<g>
				<circle class="st0" cx="911.7" cy="337.57" r="0.71"/>
			</g>
			<g>
				<circle class="st0" cx="911.05" cy="336.15" r="0.71"/>
			</g>
			<g>
				<circle class="st0" cx="910.4" cy="334.73" r="0.71"/>
			</g>
			<g>
				<circle class="st0" cx="909.9" cy="333.26" r="0.71"/>
			</g>
			<g>
				<circle class="st0" cx="909.43" cy="331.77" r="0.71"/>
			</g>
		</g>
	</g>
	<g>
		<g>
			<g>
				<circle class="st0" cx="1081.83" cy="461.14" r="0.71"/>
			</g>
			<g>
				<circle class="st0" cx="1080.34" cy="460.68" r="0.71"/>
			</g>
			<g>
				<circle class="st0" cx="1078.85" cy="460.22" r="0.71"/>
			</g>
			<g>
				<circle class="st0" cx="1077.36" cy="459.76" r="0.71"/>
			</g>
			<g>
				<circle class="st0" cx="1075.87" cy="459.3" r="0.71"/>
			</g>
			<g>
				<circle class="st0" cx="1074.38" cy="458.84" r="0.71"/>
			</g>
			<g>
				<circle class="st0" cx="1072.89" cy="458.38" r="0.71"/>
			</g>
			<g>
				<circle class="st0" cx="1071.4" cy="457.92" r="0.71"/>
			</g>
			<g>
				<circle class="st0" cx="1069.91" cy="457.46" r="0.71"/>
			</g>
			<g>
				<circle class="st0" cx="1068.42" cy="457" r="0.71"/>
			</g>
			<g>
				<circle class="st0" cx="1066.93" cy="456.54" r="0.71"/>
			</g>
			<g>
				<circle class="st0" cx="1065.44" cy="456.08" r="0.71"/>
			</g>
			<g>
				<circle class="st0" cx="1063.95" cy="455.62" r="0.71"/>
			</g>
			<g>
				<circle class="st0" cx="1062.46" cy="455.16" r="0.71"/>
			</g>
			<g>
				<circle class="st0" cx="1060.97" cy="454.69" r="0.71"/>
			</g>
			<g>
				<circle class="st0" cx="1059.48" cy="454.23" r="0.71"/>
			</g>
			<g>
				<circle class="st0" cx="1057.99" cy="453.77" r="0.71"/>
			</g>
			<g>
				<circle class="st0" cx="1056.5" cy="453.31" r="0.71"/>
			</g>
			<g>
				<circle class="st0" cx="1055.01" cy="452.85" r="0.71"/>
			</g>
			<g>
				<circle class="st0" cx="1053.52" cy="452.39" r="0.71"/>
			</g>
			<g>
				<circle class="st0" cx="1052.03" cy="451.93" r="0.71"/>
			</g>
			<g>
				<circle class="st0" cx="1050.54" cy="451.47" r="0.71"/>
			</g>
			<g>
				<circle class="st0" cx="1049.05" cy="451.01" r="0.71"/>
			</g>
			<g>
				<circle class="st0" cx="1047.56" cy="450.55" r="0.71"/>
			</g>
			<g>
				<circle class="st0" cx="1046.08" cy="450.09" r="0.71"/>
			</g>
			<g>
				<circle class="st0" cx="1044.77" cy="449.23" r="0.71"/>
			</g>
			<g>
				<circle class="st0" cx="1043.47" cy="448.38" r="0.71"/>
			</g>
			<g>
				<circle class="st0" cx="1042.17" cy="447.52" r="0.71"/>
			</g>
			<g>
				<circle class="st0" cx="1040.87" cy="446.66" r="0.71"/>
			</g>
			<g>
				<circle class="st0" cx="1039.56" cy="445.8" r="0.71"/>
			</g>
			<g>
				<circle class="st0" cx="1038.26" cy="444.95" r="0.71"/>
			</g>
			<g>
				<circle class="st0" cx="1036.96" cy="444.09" r="0.71"/>
			</g>
			<g>
				<circle class="st0" cx="1035.66" cy="443.23" r="0.71"/>
			</g>
			<g>
				<circle class="st0" cx="1034.35" cy="442.38" r="0.71"/>
			</g>
			<g>
				<circle class="st0" cx="1033.05" cy="441.52" r="0.71"/>
			</g>
			<g>
				<circle class="st0" cx="1031.75" cy="440.66" r="0.71"/>
			</g>
			<g>
				<circle class="st0" cx="1030.45" cy="439.81" r="0.71"/>
			</g>
			<g>
				<circle class="st0" cx="1029.14" cy="438.95" r="0.71"/>
			</g>
			<g>
				<circle class="st0" cx="1027.84" cy="438.09" r="0.71"/>
			</g>
			<g>
				<circle class="st0" cx="1026.54" cy="437.24" r="0.71"/>
			</g>
			<g>
				<circle class="st0" cx="1025.24" cy="436.38" r="0.71"/>
			</g>
			<g>
				<circle class="st0" cx="1023.93" cy="435.52" r="0.71"/>
			</g>
			<g>
				<circle class="st0" cx="1022.63" cy="434.67" r="0.71"/>
			</g>
			<g>
				<circle class="st0" cx="1021.33" cy="433.81" r="0.71"/>
			</g>
			<g>
				<circle class="st0" cx="1020.23" cy="432.73" r="0.71"/>
			</g>
			<g>
				<circle class="st0" cx="1019.26" cy="431.51" r="0.71"/>
			</g>
			<g>
				<circle class="st0" cx="1018.29" cy="430.29" r="0.71"/>
			</g>
			<g>
				<circle class="st0" cx="1017.31" cy="429.07" r="0.71"/>
			</g>
			<g>
				<circle class="st0" cx="1016.34" cy="427.86" r="0.71"/>
			</g>
			<g>
				<circle class="st0" cx="1015.37" cy="426.64" r="0.71"/>
			</g>
			<g>
				<circle class="st0" cx="1014.39" cy="425.42" r="0.71"/>
			</g>
			<g>
				<circle class="st0" cx="1013.42" cy="424.2" r="0.71"/>
			</g>
			<g>
				<circle class="st0" cx="1012.45" cy="422.98" r="0.71"/>
			</g>
			<g>
				<circle class="st0" cx="1011.48" cy="421.76" r="0.71"/>
			</g>
			<g>
				<circle class="st0" cx="1010.5" cy="420.55" r="0.71"/>
			</g>
			<g>
				<circle class="st0" cx="1009.53" cy="419.33" r="0.71"/>
			</g>
			<g>
				<circle class="st0" cx="1008.56" cy="418.11" r="0.71"/>
			</g>
			<g>
				<circle class="st0" cx="1007.58" cy="416.89" r="0.71"/>
			</g>
			<g>
				<circle class="st0" cx="1006.61" cy="415.67" r="0.71"/>
			</g>
			<g>
				<circle class="st0" cx="1005.64" cy="414.46" r="0.71"/>
			</g>
			<g>
				<circle class="st0" cx="1004.66" cy="413.24" r="0.71"/>
			</g>
			<g>
				<circle class="st0" cx="1004.08" cy="411.79" r="0.71"/>
			</g>
			<g>
				<circle class="st0" cx="1003.5" cy="410.35" r="0.71"/>
			</g>
			<g>
				<circle class="st0" cx="1002.92" cy="408.9" r="0.71"/>
			</g>
			<g>
				<circle class="st0" cx="1002.34" cy="407.45" r="0.71"/>
			</g>
			<g>
				<circle class="st0" cx="1001.75" cy="406.01" r="0.71"/>
			</g>
			<g>
				<circle class="st0" cx="1001.17" cy="404.56" r="0.71"/>
			</g>
			<g>
				<circle class="st0" cx="1000.59" cy="403.11" r="0.71"/>
			</g>
			<g>
				<circle class="st0" cx="1000.01" cy="401.67" r="0.71"/>
			</g>
			<g>
				<circle class="st0" cx="999.43" cy="400.22" r="0.71"/>
			</g>
			<g>
				<circle class="st0" cx="998.85" cy="398.77" r="0.71"/>
			</g>
			<g>
				<circle class="st0" cx="998.27" cy="397.33" r="0.71"/>
			</g>
			<g>
				<circle class="st0" cx="997.69" cy="395.88" r="0.71"/>
			</g>
			<g>
				<circle class="st0" cx="997.11" cy="394.43" r="0.71"/>
			</g>
			<g>
				<circle class="st0" cx="996.53" cy="392.98" r="0.71"/>
			</g>
			<g>
				<circle class="st0" cx="995.95" cy="391.54" r="0.71"/>
			</g>
			<g>
				<circle class="st0" cx="995.61" cy="390.02" r="0.71"/>
			</g>
			<g>
				<circle class="st0" cx="995.38" cy="388.48" r="0.71"/>
			</g>
			<g>
				<circle class="st0" cx="995.15" cy="386.94" r="0.71"/>
			</g>
			<g>
				<circle class="st0" cx="994.91" cy="385.4" r="0.71"/>
			</g>
			<g>
				<circle class="st0" cx="994.68" cy="383.86" r="0.71"/>
			</g>
			<g>
				<circle class="st0" cx="994.45" cy="382.32" r="0.71"/>
			</g>
			<g>
				<circle class="st0" cx="994.22" cy="380.77" r="0.71"/>
			</g>
			<g>
				<circle class="st0" cx="993.99" cy="379.23" r="0.71"/>
			</g>
			<g>
				<circle class="st0" cx="993.76" cy="377.69" r="0.71"/>
			</g>
			<g>
				<circle class="st0" cx="993.53" cy="376.15" r="0.71"/>
			</g>
			<g>
				<circle class="st0" cx="993.29" cy="374.61" r="0.71"/>
			</g>
			<g>
				<circle class="st0" cx="993.06" cy="373.07" r="0.71"/>
			</g>
			<g>
				<circle class="st0" cx="992.83" cy="371.52" r="0.71"/>
			</g>
			<g>
				<circle class="st0" cx="992.6" cy="369.98" r="0.71"/>
			</g>
			<g>
				<circle class="st0" cx="992.46" cy="368.43" r="0.71"/>
			</g>
			<g>
				<circle class="st0" cx="992.49" cy="366.88" r="0.71"/>
			</g>
			<g>
				<circle class="st0" cx="992.53" cy="365.32" r="0.71"/>
			</g>
			<g>
				<circle class="st0" cx="992.56" cy="363.76" r="0.71"/>
			</g>
			<g>
				<circle class="st0" cx="992.6" cy="362.2" r="0.71"/>
			</g>
			<g>
				<circle class="st0" cx="992.64" cy="360.64" r="0.71"/>
			</g>
			<g>
				<circle class="st0" cx="992.67" cy="359.08" r="0.71"/>
			</g>
			<g>
				<circle class="st0" cx="992.71" cy="357.52" r="0.71"/>
			</g>
			<g>
				<circle class="st0" cx="992.74" cy="355.97" r="0.71"/>
			</g>
			<g>
				<circle class="st0" cx="992.78" cy="354.41" r="0.71"/>
			</g>
			<g>
				<circle class="st0" cx="992.82" cy="352.85" r="0.71"/>
			</g>
			<g>
				<circle class="st0" cx="992.85" cy="351.29" r="0.71"/>
			</g>
			<g>
				<circle class="st0" cx="992.89" cy="349.73" r="0.71"/>
			</g>
			<g>
				<circle class="st0" cx="992.97" cy="348.18" r="0.71"/>
			</g>
			<g>
				<circle class="st0" cx="993.2" cy="346.63" r="0.71"/>
			</g>
			<g>
				<circle class="st0" cx="993.43" cy="345.09" r="0.71"/>
			</g>
			<g>
				<circle class="st0" cx="993.66" cy="343.55" r="0.71"/>
			</g>
			<g>
				<circle class="st0" cx="993.9" cy="342.01" r="0.71"/>
			</g>
			<g>
				<circle class="st0" cx="994.13" cy="340.47" r="0.71"/>
			</g>
			<g>
				<circle class="st0" cx="994.36" cy="338.92" r="0.71"/>
			</g>
			<g>
				<circle class="st0" cx="994.59" cy="337.38" r="0.71"/>
			</g>
			<g>
				<circle class="st0" cx="994.82" cy="335.84" r="0.71"/>
			</g>
			<g>
				<circle class="st0" cx="995.05" cy="334.3" r="0.71"/>
			</g>
			<g>
				<circle class="st0" cx="995.28" cy="332.76" r="0.71"/>
			</g>
			<g>
				<circle class="st0" cx="995.56" cy="331.23" r="0.71"/>
			</g>
			<g>
				<circle class="st0" cx="995.93" cy="329.71" r="0.71"/>
			</g>
			<g>
				<circle class="st0" cx="996.3" cy="328.2" r="0.71"/>
			</g>
			<g>
				<circle class="st0" cx="996.67" cy="326.68" r="0.71"/>
			</g>
			<g>
				<circle class="st0" cx="997.04" cy="325.17" r="0.71"/>
			</g>
			<g>
				<circle class="st0" cx="997.41" cy="323.65" r="0.71"/>
			</g>
			<g>
				<circle class="st0" cx="997.78" cy="322.14" r="0.71"/>
			</g>
			<g>
				<circle class="st0" cx="998.16" cy="320.63" r="0.71"/>
			</g>
			<g>
				<circle class="st0" cx="998.61" cy="319.13" r="0.71"/>
			</g>
			<g>
				<circle class="st0" cx="999.07" cy="317.65" r="0.71"/>
			</g>
			<g>
				<circle class="st0" cx="999.54" cy="316.16" r="0.71"/>
			</g>
		</g>
	</g>
</g>
</svg>
