<?xml version="1.0" encoding="utf-8"?>
<!-- Generator: Adobe Illustrator 25.1.0, SVG Export Plug-In . SVG Version: 6.00 Build 0)  -->
<svg version="1.1" id="Calque_1" xmlns="http://www.w3.org/2000/svg" xmlns:xlink="http://www.w3.org/1999/xlink" x="0px" y="0px"
	 viewBox="0 0 1920 1080" style="enable-background:new 0 0 1920 1080;" xml:space="preserve">
<style type="text/css">
	.st0{fill:#E20613;}
	.st1{fill:#FFFFFF;}
	.st2{fill:none;}
</style>
<g>
	<rect x="784.99" y="275.86" class="st0" width="350.02" height="528.29"/>
	<path class="st1" d="M843.83,791.96c0,0,94.3,1.99,231.9-1.43c4.55-27.33,31.88-37.08-13.01-146.39
		c-4.07-6.34-54.33-76.12-49.93-95.64c0,0,82.95-13.17,67.83-89.3c5.86-7.32,43.43-25.37,11.71-73.68
		c0-8.78,14.15-38.06-22.45-54.65c-3.42-13.17-27.33-50.26-71.24-17.08c-2.93-1.95-50.75-43.43-90.27,14.64
		c-4.88,3.42-58.55-7.81-87.83,39.04c0,0-17.08,16.59,9.27,60.02c0.49,10.73-12.69,58.07,11.22,70.75
		c4.88,5.86,11.71,6.34-4.39,51.72c0,0-3.66,10.73,16.83,11.95c9.76,1.95,3.66,13.91,3.66,13.91s-0.49,9.27,11.71,4.88
		c0.73,4.88-5.12,20.01,11.47,18.3c6.1,4.15,8.05,11.71,8.05,11.71s0.98,16.35,24.4,8.3c18.3-9.52,26.11-14.39,26.11-14.39
		s17.08-4.64,19.27,5.86c2.2,10.49,20.49,40.99-10,75.88C942.53,692.45,846.92,763.82,843.83,791.96z"/>
	<g>
		<rect x="932.34" y="479.5" class="st2" width="63.78" height="63.78"/>
	</g>
	<circle class="st0" cx="985.05" cy="505.2" r="12.36"/>
</g>
</svg>
