<?xml version="1.0" encoding="utf-8"?>
<!-- Generator: Adobe Illustrator 25.1.0, SVG Export Plug-In . SVG Version: 6.00 Build 0)  -->
<svg version="1.1" id="Calque_1" xmlns="http://www.w3.org/2000/svg" xmlns:xlink="http://www.w3.org/1999/xlink" x="0px" y="0px"
	 viewBox="0 0 1920 1080" style="enable-background:new 0 0 1920 1080;" xml:space="preserve">
<style type="text/css">
	.st0{fill:#E20613;}
	.st1{fill:#FFFFFF;}
	.st2{fill:none;stroke:#E20613;stroke-width:0.25;stroke-miterlimit:10;}
</style>
<g>
	<rect x="784.99" y="275.86" class="st0" width="350.02" height="528.29"/>
	<path class="st1" d="M884.33,307.2c0,0,94.5-33.24,231.35,42.26c-6.14,14.84-43.57,84.53-37.43,158.1
		c5.52,5.81,42.34,38.07,42.34,46.78c-0.61,3.23,6.75,13.87-22.7,4.2c-2.76-0.97-23.63-11.61-23.63-11.61s3.07,18.71-1.84,20.33
		c-3.38,1.29-8.59,4.52-3.99,21.29c3.38,5.48,14.73,30.65,14.73,30.65s9.51,13.23-17.49,12.91c-1.53,3.23,0.77,14.36,0.77,14.36
		l-9.66,8.39l3.53,5.48c0,0-18.72,10-7.06,15.16c2.61,3.71-0.61,20.81-14.73,22.75c-14.11,1.94-37.28-2.58-37.28-2.58
		s26.08,3.87-4.76,20.65c0,0,6.9,5.97-7.06,16.78c3.99,2.26,28.69,14.36,24.55,35.01c1.84,7.58,7.21,25.49,7.21,25.49l-171.21-0.32
		c0,0-42.8-39.68-41.42-48.64c4.37-6.78,32.44-46.46,32.44-46.46s7.36-23.47,6.67-35.81c-0.69-12.34,3.37-16.21,3.37-16.21
		l-5.37-22.58l16.42,1.94c0,0-8.59-11.13-8.59-18.07c-0.31-5,1.69-31.46,1.69-31.46s-18.87-24.84-7.67-45.17
		c0-6.61,2.15-23.71,2.15-23.71l-35.82,1.13c0,0-23.01,0.73,1.84-16.21c3.45-2.9,25.08-15.97,47.86-18.88
		C864.7,467.8,898.45,389.48,884.33,307.2z"/>
	<ellipse class="st2" cx="1034.49" cy="580.67" rx="14.64" ry="20.49"/>
	<g>
		<path class="st0" d="M1020.51,586.86c-0.01,0.02-3.26,11.86-3.26,11.89c-0.07,0.25-10.33,37.63-10.4,37.88"/>
		<g>
			<g>
				<circle class="st0" cx="1006.89" cy="636.47" r="0.18"/>
			</g>
			<g>
				<circle class="st0" cx="1006.99" cy="636.09" r="0.18"/>
			</g>
			<g>
				<circle class="st0" cx="1007.09" cy="635.72" r="0.18"/>
			</g>
			<g>
				<circle class="st0" cx="1007.2" cy="635.34" r="0.18"/>
			</g>
			<g>
				<circle class="st0" cx="1007.3" cy="634.97" r="0.18"/>
			</g>
			<g>
				<circle class="st0" cx="1007.4" cy="634.59" r="0.18"/>
			</g>
			<g>
				<circle class="st0" cx="1007.51" cy="634.21" r="0.18"/>
			</g>
			<g>
				<circle class="st0" cx="1007.61" cy="633.84" r="0.18"/>
			</g>
			<g>
				<circle class="st0" cx="1007.71" cy="633.46" r="0.18"/>
			</g>
			<g>
				<circle class="st0" cx="1007.82" cy="633.09" r="0.18"/>
			</g>
			<g>
				<circle class="st0" cx="1007.92" cy="632.71" r="0.18"/>
			</g>
			<g>
				<circle class="st0" cx="1008.02" cy="632.33" r="0.18"/>
			</g>
			<g>
				<circle class="st0" cx="1008.12" cy="631.96" r="0.18"/>
			</g>
			<g>
				<circle class="st0" cx="1008.23" cy="631.58" r="0.18"/>
			</g>
			<g>
				<circle class="st0" cx="1008.33" cy="631.21" r="0.18"/>
			</g>
			<g>
				<circle class="st0" cx="1008.43" cy="630.83" r="0.18"/>
			</g>
			<g>
				<circle class="st0" cx="1008.54" cy="630.46" r="0.18"/>
			</g>
			<g>
				<circle class="st0" cx="1008.64" cy="630.08" r="0.18"/>
			</g>
			<g>
				<circle class="st0" cx="1008.74" cy="629.7" r="0.18"/>
			</g>
			<g>
				<circle class="st0" cx="1008.85" cy="629.33" r="0.18"/>
			</g>
			<g>
				<circle class="st0" cx="1008.95" cy="628.95" r="0.18"/>
			</g>
			<g>
				<circle class="st0" cx="1009.05" cy="628.58" r="0.18"/>
			</g>
			<g>
				<circle class="st0" cx="1009.16" cy="628.2" r="0.18"/>
			</g>
			<g>
				<circle class="st0" cx="1009.26" cy="627.82" r="0.18"/>
			</g>
			<g>
				<circle class="st0" cx="1009.36" cy="627.45" r="0.18"/>
			</g>
			<g>
				<circle class="st0" cx="1009.47" cy="627.07" r="0.18"/>
			</g>
			<g>
				<circle class="st0" cx="1009.57" cy="626.7" r="0.18"/>
			</g>
			<g>
				<circle class="st0" cx="1009.67" cy="626.32" r="0.18"/>
			</g>
			<g>
				<circle class="st0" cx="1009.78" cy="625.94" r="0.18"/>
			</g>
			<g>
				<circle class="st0" cx="1009.88" cy="625.57" r="0.18"/>
			</g>
			<g>
				<circle class="st0" cx="1009.98" cy="625.19" r="0.18"/>
			</g>
			<g>
				<circle class="st0" cx="1010.09" cy="624.82" r="0.18"/>
			</g>
			<g>
				<circle class="st0" cx="1010.19" cy="624.44" r="0.18"/>
			</g>
			<g>
				<circle class="st0" cx="1010.29" cy="624.07" r="0.18"/>
			</g>
			<g>
				<circle class="st0" cx="1010.39" cy="623.69" r="0.18"/>
			</g>
			<g>
				<circle class="st0" cx="1010.5" cy="623.31" r="0.18"/>
			</g>
			<g>
				<circle class="st0" cx="1010.6" cy="622.94" r="0.18"/>
			</g>
			<g>
				<circle class="st0" cx="1010.7" cy="622.56" r="0.18"/>
			</g>
			<g>
				<circle class="st0" cx="1010.81" cy="622.19" r="0.18"/>
			</g>
			<g>
				<circle class="st0" cx="1010.91" cy="621.81" r="0.18"/>
			</g>
			<g>
				<circle class="st0" cx="1011.01" cy="621.43" r="0.18"/>
			</g>
			<g>
				<circle class="st0" cx="1011.12" cy="621.06" r="0.18"/>
			</g>
			<g>
				<circle class="st0" cx="1011.22" cy="620.68" r="0.18"/>
			</g>
			<g>
				<circle class="st0" cx="1011.32" cy="620.31" r="0.18"/>
			</g>
			<g>
				<circle class="st0" cx="1011.43" cy="619.93" r="0.18"/>
			</g>
			<g>
				<circle class="st0" cx="1011.53" cy="619.56" r="0.18"/>
			</g>
			<g>
				<circle class="st0" cx="1011.63" cy="619.18" r="0.18"/>
			</g>
			<g>
				<circle class="st0" cx="1011.74" cy="618.8" r="0.18"/>
			</g>
			<g>
				<circle class="st0" cx="1011.84" cy="618.43" r="0.18"/>
			</g>
			<g>
				<circle class="st0" cx="1011.94" cy="618.05" r="0.18"/>
			</g>
			<g>
				<circle class="st0" cx="1012.05" cy="617.68" r="0.18"/>
			</g>
			<g>
				<circle class="st0" cx="1012.15" cy="617.3" r="0.18"/>
			</g>
			<g>
				<circle class="st0" cx="1012.25" cy="616.92" r="0.18"/>
			</g>
			<g>
				<circle class="st0" cx="1012.36" cy="616.55" r="0.18"/>
			</g>
			<g>
				<circle class="st0" cx="1012.46" cy="616.17" r="0.18"/>
			</g>
			<g>
				<circle class="st0" cx="1012.56" cy="615.8" r="0.18"/>
			</g>
			<g>
				<circle class="st0" cx="1012.66" cy="615.42" r="0.18"/>
			</g>
			<g>
				<circle class="st0" cx="1012.77" cy="615.04" r="0.18"/>
			</g>
			<g>
				<circle class="st0" cx="1012.87" cy="614.67" r="0.18"/>
			</g>
			<g>
				<circle class="st0" cx="1012.97" cy="614.29" r="0.18"/>
			</g>
			<g>
				<circle class="st0" cx="1013.08" cy="613.92" r="0.18"/>
			</g>
			<g>
				<circle class="st0" cx="1013.18" cy="613.54" r="0.18"/>
			</g>
			<g>
				<circle class="st0" cx="1013.28" cy="613.17" r="0.18"/>
			</g>
			<g>
				<circle class="st0" cx="1013.39" cy="612.79" r="0.18"/>
			</g>
			<g>
				<circle class="st0" cx="1013.49" cy="612.41" r="0.18"/>
			</g>
			<g>
				<circle class="st0" cx="1013.59" cy="612.04" r="0.18"/>
			</g>
			<g>
				<circle class="st0" cx="1013.7" cy="611.66" r="0.18"/>
			</g>
			<g>
				<circle class="st0" cx="1013.8" cy="611.29" r="0.18"/>
			</g>
			<g>
				<circle class="st0" cx="1013.9" cy="610.91" r="0.18"/>
			</g>
			<g>
				<circle class="st0" cx="1014.01" cy="610.53" r="0.18"/>
			</g>
			<g>
				<circle class="st0" cx="1014.11" cy="610.16" r="0.18"/>
			</g>
			<g>
				<circle class="st0" cx="1014.21" cy="609.78" r="0.18"/>
			</g>
			<g>
				<circle class="st0" cx="1014.32" cy="609.41" r="0.18"/>
			</g>
			<g>
				<circle class="st0" cx="1014.42" cy="609.03" r="0.18"/>
			</g>
			<g>
				<circle class="st0" cx="1014.52" cy="608.66" r="0.18"/>
			</g>
			<g>
				<circle class="st0" cx="1014.62" cy="608.28" r="0.18"/>
			</g>
			<g>
				<circle class="st0" cx="1014.73" cy="607.9" r="0.18"/>
			</g>
			<g>
				<circle class="st0" cx="1014.83" cy="607.53" r="0.18"/>
			</g>
			<g>
				<circle class="st0" cx="1014.93" cy="607.15" r="0.18"/>
			</g>
			<g>
				<circle class="st0" cx="1015.04" cy="606.78" r="0.18"/>
			</g>
			<g>
				<circle class="st0" cx="1015.14" cy="606.4" r="0.18"/>
			</g>
			<g>
				<circle class="st0" cx="1015.24" cy="606.02" r="0.18"/>
			</g>
			<g>
				<circle class="st0" cx="1015.35" cy="605.65" r="0.18"/>
			</g>
			<g>
				<circle class="st0" cx="1015.45" cy="605.27" r="0.18"/>
			</g>
			<g>
				<circle class="st0" cx="1015.55" cy="604.9" r="0.18"/>
			</g>
			<g>
				<circle class="st0" cx="1015.66" cy="604.52" r="0.18"/>
			</g>
			<g>
				<circle class="st0" cx="1015.76" cy="604.15" r="0.18"/>
			</g>
			<g>
				<circle class="st0" cx="1015.86" cy="603.77" r="0.18"/>
			</g>
			<g>
				<circle class="st0" cx="1015.97" cy="603.39" r="0.18"/>
			</g>
			<g>
				<circle class="st0" cx="1016.07" cy="603.02" r="0.18"/>
			</g>
			<g>
				<circle class="st0" cx="1016.17" cy="602.64" r="0.18"/>
			</g>
			<g>
				<circle class="st0" cx="1016.28" cy="602.27" r="0.18"/>
			</g>
			<g>
				<circle class="st0" cx="1016.38" cy="601.89" r="0.18"/>
			</g>
			<g>
				<circle class="st0" cx="1016.48" cy="601.51" r="0.18"/>
			</g>
			<g>
				<circle class="st0" cx="1016.59" cy="601.14" r="0.18"/>
			</g>
			<g>
				<circle class="st0" cx="1016.69" cy="600.76" r="0.18"/>
			</g>
			<g>
				<circle class="st0" cx="1016.79" cy="600.39" r="0.18"/>
			</g>
			<g>
				<circle class="st0" cx="1016.89" cy="600.01" r="0.18"/>
			</g>
			<g>
				<circle class="st0" cx="1017" cy="599.63" r="0.18"/>
			</g>
			<g>
				<circle class="st0" cx="1017.1" cy="599.26" r="0.18"/>
			</g>
			<g>
				<circle class="st0" cx="1017.2" cy="598.88" r="0.18"/>
			</g>
			<g>
				<circle class="st0" cx="1017.31" cy="598.51" r="0.18"/>
			</g>
			<g>
				<circle class="st0" cx="1017.41" cy="598.13" r="0.18"/>
			</g>
			<g>
				<circle class="st0" cx="1017.51" cy="597.76" r="0.18"/>
			</g>
			<g>
				<circle class="st0" cx="1017.62" cy="597.38" r="0.18"/>
			</g>
			<g>
				<circle class="st0" cx="1017.72" cy="597" r="0.18"/>
			</g>
			<g>
				<circle class="st0" cx="1017.82" cy="596.63" r="0.18"/>
			</g>
			<g>
				<circle class="st0" cx="1017.93" cy="596.25" r="0.18"/>
			</g>
			<g>
				<circle class="st0" cx="1018.03" cy="595.88" r="0.18"/>
			</g>
			<g>
				<circle class="st0" cx="1018.13" cy="595.5" r="0.18"/>
			</g>
			<g>
				<circle class="st0" cx="1018.24" cy="595.12" r="0.18"/>
			</g>
			<g>
				<circle class="st0" cx="1018.34" cy="594.75" r="0.18"/>
			</g>
			<g>
				<circle class="st0" cx="1018.44" cy="594.37" r="0.18"/>
			</g>
			<g>
				<circle class="st0" cx="1018.55" cy="594" r="0.18"/>
			</g>
			<g>
				<circle class="st0" cx="1018.65" cy="593.62" r="0.18"/>
			</g>
			<g>
				<circle class="st0" cx="1018.75" cy="593.25" r="0.18"/>
			</g>
			<g>
				<circle class="st0" cx="1018.86" cy="592.87" r="0.18"/>
			</g>
			<g>
				<circle class="st0" cx="1018.96" cy="592.49" r="0.18"/>
			</g>
			<g>
				<circle class="st0" cx="1019.06" cy="592.12" r="0.18"/>
			</g>
			<g>
				<circle class="st0" cx="1019.16" cy="591.74" r="0.18"/>
			</g>
			<g>
				<circle class="st0" cx="1019.27" cy="591.37" r="0.18"/>
			</g>
			<g>
				<circle class="st0" cx="1019.37" cy="590.99" r="0.18"/>
			</g>
			<g>
				<circle class="st0" cx="1019.47" cy="590.61" r="0.18"/>
			</g>
			<g>
				<circle class="st0" cx="1019.58" cy="590.24" r="0.18"/>
			</g>
			<g>
				<circle class="st0" cx="1019.68" cy="589.86" r="0.18"/>
			</g>
			<g>
				<circle class="st0" cx="1019.78" cy="589.49" r="0.18"/>
			</g>
			<g>
				<circle class="st0" cx="1019.89" cy="589.11" r="0.18"/>
			</g>
			<g>
				<circle class="st0" cx="1019.99" cy="588.73" r="0.18"/>
			</g>
			<g>
				<circle class="st0" cx="1020.09" cy="588.36" r="0.18"/>
			</g>
			<g>
				<circle class="st0" cx="1020.2" cy="587.98" r="0.18"/>
			</g>
			<g>
				<circle class="st0" cx="1020.3" cy="587.61" r="0.18"/>
			</g>
			<g>
				<circle class="st0" cx="1020.4" cy="587.23" r="0.18"/>
			</g>
			<g>
				<circle class="st0" cx="1020.51" cy="586.86" r="0.18"/>
			</g>
		</g>
	</g>
</g>
</svg>
