<?xml version="1.0" encoding="utf-8"?>
<!-- Generator: Adobe Illustrator 25.1.0, SVG Export Plug-In . SVG Version: 6.00 Build 0)  -->
<svg version="1.1" id="Calque_1" xmlns="http://www.w3.org/2000/svg" xmlns:xlink="http://www.w3.org/1999/xlink" x="0px" y="0px"
	 viewBox="0 0 1920 1080" style="enable-background:new 0 0 1920 1080;" xml:space="preserve">
<style type="text/css">
	.st0{fill:#94C12F;}
	.st1{fill:#009EE2;}
	.st2{fill:#C99D66;}
	.st3{fill:#008D36;}
	.st4{fill:#868686;}
	.st5{fill:none;stroke:#FFFFFF;stroke-width:1.1948;stroke-linecap:round;stroke-linejoin:round;stroke-miterlimit:10;}
	.st6{fill:none;}
</style>
<path class="st0" d="M1920,0v1080h-196.85c-0.95,1.68-1.95,3.34-2.99,4.96c-1.71-1.6-3.37-3.25-4.98-4.96H0V346.62
	c-1.38-0.61-2.78-1.16-4.2-1.63c1.3-2.36,2.7-4.63,4.2-6.79V0H1920z"/>
<path class="st1" d="M1920,41.67v168.55c-899.86,58.54-758.5,211.98-738.31,249.55c297.96,282.26,176.94,504.55,65.11,620.23H0
	V742.29c516.86-79.8,562.45-322.68,559.54-424.73C615.28,50.46,1552.13,36.69,1920,41.67z"/>
<path class="st2" d="M131.33-27.3L131.33-27.3z"/>
<g>
	<path class="st3" d="M128.97,22.76v0.14c-0.04,10.34-4.19,19.42-10.46,24.68c-3.62,3.05-7.95,4.81-12.59,4.81
		c-12.73,0-23.05-13.26-23.05-29.63c0-9.15,3.23-17.33,8.3-22.76h29.5c1.86,1.99,3.48,4.35,4.76,7
		C127.68,11.56,128.97,16.97,128.97,22.76z"/>
	<path class="st3" d="M156.47,0c-0.57,3.52-1.62,6.81-3.07,9.75c-3.07,6.27-7.93,10.95-13.65,12.88c-1.87,0.62-3.83,0.96-5.85,0.96
		c-1.69,0-3.34-0.24-4.93-0.69c-3.96-1.1-7.54-3.52-10.44-6.88c-3.6-4.14-6.17-9.71-7.19-16.02H156.47z"/>
	<ellipse class="st3" cx="138.02" cy="31.82" rx="23.05" ry="29.63"/>
	<path class="st3" d="M185.76,20.29c0,1.53-0.09,3.03-0.27,4.5c-1.68,14.23-11.24,25.13-22.78,25.13c-2.04,0-4-0.34-5.88-0.98h-0.01
		c-9.31-3.15-16.31-13.6-17.07-26.31c-0.06-0.77-0.08-1.55-0.08-2.34c0-6.38,1.57-12.29,4.24-17.12c0.61-1.12,1.29-2.18,2.02-3.17
		h33.57C183.38,5.3,185.76,12.44,185.76,20.29z"/>
	<path class="st3" d="M216.93,0c-0.2,2.77-0.69,5.43-1.45,7.92c-3.32,11.09-11.69,18.96-21.49,18.96c-2.63,0-5.16-0.57-7.51-1.62
		c-0.33-0.14-0.66-0.29-0.99-0.47C177.6,20.77,171.85,11.31,171.04,0H216.93z"/>
	<ellipse class="st3" cx="207.98" cy="35.93" rx="23.05" ry="29.63"/>
</g>
<g>
	<path class="st3" d="M30.89,320.22c0,15.63-3.5,30.2-9.55,42.5C16.01,373.6,8.67,382.7,0,389.17v-42.55
		c-1.38-0.61-2.78-1.16-4.2-1.63c1.3-2.36,2.7-4.63,4.2-6.79v-86.93c17.15,12.81,29.08,35.88,30.7,62.68
		C30.83,316.02,30.89,318.11,30.89,320.22z"/>
	<path class="st3" d="M41.96,422.06c0,17.17-4.22,33.07-11.41,46.08C23.09,481.66,12.44,492.06,0,497.51V346.62
		c7.97,3.49,15.21,9.02,21.34,16.1C34,377.31,41.96,398.49,41.96,422.06z"/>
	<path class="st3" d="M108.37,391.07c0,4.12-0.24,8.16-0.71,12.11c-4.54,38.27-30.24,67.59-61.28,67.59
		c-5.47,0-10.78-0.91-15.83-2.63C18.56,464.09,7.99,455.52,0,443.94v-97.32c-1.38-0.61-2.78-1.16-4.2-1.63
		c1.3-2.36,2.7-4.63,4.2-6.79c8.02-11.63,18.65-20.22,30.7-24.25c5.01-1.69,10.26-2.58,15.68-2.58c8.07,0,15.78,1.98,22.85,5.59
		C92.16,328.65,108.37,357.43,108.37,391.07z"/>
	<ellipse class="st3" cx="130.51" cy="329.08" rx="61.99" ry="79.7"/>
	<ellipse class="st3" cx="168.15" cy="433.13" rx="61.99" ry="79.7"/>
</g>
<g>
	<ellipse class="st3" cx="1583.87" cy="867.59" rx="108.93" ry="116.99"/>
	<ellipse class="st3" cx="1727.09" cy="847.42" rx="108.93" ry="116.99"/>
	<path class="st3" d="M1739.19,1018.88c0,22.4-5.86,43.33-16.04,61.12c-0.95,1.68-1.95,3.34-2.99,4.96
		c-1.71-1.6-3.37-3.25-4.98-4.96h-177.8c-10.18-17.79-16.04-38.72-16.04-61.12c0-17.43,3.55-33.98,9.92-48.84
		c17.23-40.23,55.08-68.16,99.01-68.16c0.13,0,0.27,0,0.4,0.01c18.93,0.06,36.72,5.33,52.21,14.53c6.76,4.01,13.09,8.77,18.87,14.18
		c10.13,9.47,18.62,20.93,24.93,33.8C1734.67,980.67,1739.19,999.21,1739.19,1018.88z"/>
	<path class="st3" d="M1900.56,996.69c0,32.61-12.42,62.1-32.46,83.31h-144.95c-0.95,1.68-1.95,3.34-2.99,4.96
		c-1.71-1.6-3.37-3.25-4.98-4.96c-20.05-21.21-32.47-50.7-32.47-83.31c0-13.9,2.25-27.23,6.4-39.59c3.16-9.46,7.43-18.35,12.64-26.5
		c19.62-30.74,52.56-50.91,89.89-50.91c13.36,0,26.15,2.58,37.97,7.31C1871.05,903.55,1900.56,946.42,1900.56,996.69z"/>
</g>
<g>
	<ellipse class="st3" cx="1237.58" cy="382.19" rx="31.49" ry="33.82"/>
	<ellipse class="st3" cx="1278.98" cy="376.36" rx="31.49" ry="33.82"/>
	<ellipse class="st3" cx="1250.99" cy="425.93" rx="31.49" ry="33.82"/>
	<ellipse class="st3" cx="1297.64" cy="419.51" rx="31.49" ry="33.82"/>
</g>
<g>
	<ellipse class="st3" cx="1760.58" cy="333.62" rx="14.53" ry="15.6"/>
	<ellipse class="st3" cx="1779.68" cy="330.93" rx="14.53" ry="15.6"/>
	<ellipse class="st3" cx="1766.77" cy="353.79" rx="14.53" ry="15.6"/>
	<ellipse class="st3" cx="1788.29" cy="350.84" rx="14.53" ry="15.6"/>
</g>
<ellipse class="st4" cx="1531.63" cy="611.93" rx="45.39" ry="29.25"/>
<ellipse class="st4" cx="1521.34" cy="382.19" rx="23.2" ry="14.95"/>
<ellipse class="st4" cx="560.83" cy="27.89" rx="23.2" ry="14.95"/>
<ellipse class="st4" cx="429.62" cy="346.53" rx="50.08" ry="32.27"/>
<ellipse class="st4" cx="1392.67" cy="1023.17" rx="68.76" ry="44.31"/>
<path class="st5" d="M1404.35,110.62c53.14-29.89,396.05-22.87,515.65-19.45"/>
<path class="st5" d="M1339.44,107.39c0,0-627.83,74.13-411.5,269.29"/>
<path class="st5" d="M880.93,164.12c0,0-288.95,49.92-225.41,152.8"/>
<path class="st5" d="M604.2,458.37c0,0-59,281.39-449.32,307.11"/>
<path class="st5" d="M1015.69,555.19c0,0,154.31,189.11-10.59,355.52"/>
<path class="st5" d="M402.97,1080c262.79-135.33,311.67-338.72,311.67-338.72"/>
<rect class="st6" width="1920" height="1080"/>
</svg>
